<svg width="171" height="166" viewBox="0 0 171 166" fill="none" xmlns="http://www.w3.org/2000/svg">
<path d="M2 152.342V53L31 28.5H80L111.5 54.5L111 152.447C110.333 156.298 107.2 164 100 164H81H28H12.4699C5.61687 164 2.63454 156.228 2 152.342Z" fill="#F9EBDB"/>
<path d="M81 164H12.4699C5.61687 164 2.63454 156.228 2 152.342V53L31 28.5M31 28.5H80M31 28.5L39.5 49.5H72L80 28.5M80 28.5L111.5 54.5L111 152.447C110.333 156.298 107.2 164 100 164H28" stroke="#AB9F8D" stroke-width="4"/>
<path d="M130 61.5244L141.486 45L161.395 56.7578C162.543 60.677 168.234 73.3512 168.669 82.8156C169 90 162.985 92.3958 159.748 93.5779C144.433 99.1707 137.5 94.5 136.393 90.76L130 61.5244Z" fill="#809C6C"/>
<path d="M56 37C56.1629 27.5164 64.4159 3.99983 94.125 2.1291C131.261 -0.209311 138.065 29.8003 141.486 45M141.486 45L130 61.5244L136.393 90.76C137.5 94.5 144.433 99.1707 159.748 93.5779C162.985 92.3958 169 90 168.669 82.8156C168.234 73.3512 162.543 60.677 161.395 56.7578L141.486 45Z" stroke="#AB9F8D" stroke-width="4"/>
<path d="M27 94H87C91.4183 94 95 97.5817 95 102V140C95 144.418 91.4183 148 87 148H27C22.5817 148 19 144.418 19 140V102C19 97.5817 22.5817 94 27 94Z" fill="#D1D7B5" stroke="#AB9F8D" stroke-width="4"/>
<path d="M49 39H63" stroke="#AB9F8D" stroke-width="4"/>
<path d="M21 97L49.7593 118.257C53.1938 120.795 57.8613 120.873 61.3779 118.449L92.5 97" stroke="#AB9F8D" stroke-width="4"/>
</svg>
